<?xml version="1.0" encoding="utf-8"?>
<svg viewBox="0 0 500 500" xmlns="http://www.w3.org/2000/svg" xmlns:bx="https://boxy-svg.com">
  <path d="M 119.084 72.952 L 228.915 193.131 L 119.084 193.131 L 119.084 72.952 Z" style="stroke: rgb(0, 0, 0);" bx:shape="triangle 119.084 72.952 109.831 120.179 0 0 1@097a9238"/>
  <ellipse style="stroke: rgb(0, 0, 0);" cx="250" cy="239.194" rx="146.238" ry="111.122"/>
  <path style="stroke: rgb(0, 0, 0);" d="M 99.77 498.757 C 99.77 445.346 108.417 383.792 139.99 339.513 C 147.304 329.255 157.577 324.245 167.39 317.218 C 180.497 307.833 194.723 298.354 210.228 293.351 C 223.193 289.167 236.673 290.214 250.11 290.214 C 288.338 290.214 333.328 296.493 359.712 327.589 C 368.61 338.076 371.385 353.503 377.439 365.641 C 397.03 404.917 399.132 445.741 399.132 488.846 C 399.177 487.82 399.132 490.899 399.132 491.926 C 399.132 492.709 399.639 497.263 400.229 497.854"/>
  <path d="M -380.915 70.601 L -271.084 190.78 L -380.915 190.78 L -380.915 70.601 Z" style="stroke: rgb(0, 0, 0);" transform="matrix(-1, 0, 0, 1, 0, 0)" bx:shape="triangle -380.915 70.601 109.831 120.179 0 0 1@cd6e1363"/>
  <rect x="144.47" y="223.325" width="59.059" height="19.111" style="fill: rgb(216, 216, 216); stroke: rgb(0, 0, 0); stroke-linecap: round; stroke-linejoin: round; fill-rule: evenodd;" transform="matrix(0, -1, 1, 0, -58.880985, 406.880035)"/>
  <rect x="296.471" y="223.169" width="59.059" height="19.111" style="fill: rgb(216, 216, 216); stroke: rgb(0, 0, 0); stroke-linecap: round; stroke-linejoin: round; fill-rule: evenodd;" transform="matrix(0, -1, 1, 0, 93.275009, 558.725037)"/>
  <path style="stroke-linecap: round; stroke-linejoin: bevel; stroke: rgb(123, 123, 123);" d="M 422.393 371.5 C 389.558 371.5 355.552 374.968 323.084 380.535 C 311.363 382.545 303.061 397.712 290.158 397.712 C 282.818 404.65 280.28 414.915 270.268 418.567 C 250.773 425.679 240.859 405.325 234.557 392.878 C 232.05 387.926 233.868 378.895 232.944 373.377 C 232.242 369.188 230.579 357.851 232.535 353.938 C 256.144 306.721 306.155 308.599 352.965 308.599 C 368.965 309.765 393.069 307.6 409.688 307.6" transform="matrix(0.188537, 0.982066, -0.982066, 0.188537, 621.578589, -26.79558)"/>
  <path style="stroke: rgb(0, 0, 0); fill: rgb(237, 168, 221);" d="M 242.196 271.576 C 243.328 286.483 255.888 289.596 257.804 272.023" bx:origin="0.458 0.715"/>
  <text style="fill: rgb(255, 253, 253); font-family: Arial, sans-serif; font-size: 52px; white-space: pre;" transform="matrix(1.934856, 0, 0, 1, -233.710068, 0)" x="229.699" y="277.261">ω</text>
</svg>